<svg id="visual" viewBox="0 0 205 100" width="205" height="100" xmlns="http://www.w3.org/2000/svg" xmlns:xlink="http://www.w3.org/1999/xlink" version="1.1"><path d="M0 27L9 16L18 8L27 7L36 25L45 18L53 14L62 4L71 16L80 15L89 3L98 17L107 4L116 16L125 23L134 3L143 9L152 3L160 17L169 25L178 3L187 16L196 15L205 11L205 0L196 0L187 0L178 0L169 0L160 0L152 0L143 0L134 0L125 0L116 0L107 0L98 0L89 0L80 0L71 0L62 0L53 0L45 0L36 0L27 0L18 0L9 0L0 0Z" fill="#49171c"></path><path d="M0 30L9 21L18 10L27 10L36 26L45 24L53 19L62 7L71 16L80 17L89 8L98 17L107 5L116 23L125 27L134 3L143 15L152 10L160 21L169 25L178 7L187 19L196 20L205 12L205 9L196 13L187 14L178 1L169 23L160 15L152 1L143 7L134 1L125 21L116 14L107 2L98 15L89 1L80 13L71 14L62 2L53 12L45 16L36 23L27 5L18 6L9 14L0 25Z" fill="#461520"></path><path d="M0 30L9 27L18 19L27 13L36 28L45 27L53 19L62 9L71 24L80 26L89 10L98 17L107 6L116 31L125 30L134 8L143 16L152 15L160 22L169 29L178 15L187 28L196 27L205 15L205 10L196 18L187 17L178 5L169 23L160 19L152 8L143 13L134 1L125 25L116 21L107 3L98 15L89 6L80 15L71 14L62 5L53 17L45 22L36 24L27 8L18 8L9 19L0 28Z" fill="#431523"></path><path d="M0 32L9 31L18 26L27 16L36 36L45 29L53 29L62 18L71 33L80 30L89 15L98 26L107 7L116 42L125 33L134 14L143 16L152 18L160 28L169 29L178 26L187 37L196 38L205 24L205 13L196 25L187 26L178 13L169 27L160 20L152 13L143 14L134 6L125 28L116 29L107 4L98 15L89 8L80 24L71 22L62 7L53 17L45 25L36 26L27 11L18 17L9 25L0 28Z" fill="#3f1426"></path><path d="M0 44L9 38L18 36L27 29L36 39L45 30L53 39L62 20L71 39L80 39L89 17L98 28L107 21L116 46L125 33L134 22L143 24L152 30L160 28L169 36L178 27L187 42L196 45L205 30L205 22L196 36L187 35L178 24L169 27L160 26L152 16L143 14L134 12L125 31L116 40L107 5L98 24L89 13L80 28L71 31L62 16L53 27L45 27L36 34L27 14L18 24L9 29L0 30Z" fill="#3a1429"></path><path d="M0 46L9 45L18 44L27 29L36 41L45 35L53 44L62 20L71 43L80 46L89 24L98 34L107 25L116 47L125 35L134 26L143 32L152 34L160 28L169 40L178 28L187 42L196 46L205 30L205 28L196 43L187 40L178 25L169 34L160 26L152 28L143 22L134 20L125 31L116 44L107 19L98 26L89 15L80 37L71 37L62 18L53 37L45 28L36 37L27 27L18 34L9 36L0 42Z" fill="#35152b"></path><path d="M0 53L9 70L18 48L27 37L36 66L45 62L53 52L62 35L71 58L80 61L89 27L98 53L107 39L116 70L125 52L134 55L143 66L152 57L160 40L169 49L178 77L187 47L196 70L205 55L205 28L196 44L187 40L178 26L169 38L160 26L152 32L143 30L134 24L125 33L116 45L107 23L98 32L89 22L80 44L71 41L62 18L53 42L45 33L36 39L27 27L18 42L9 43L0 44Z" fill="#2f152d"></path><path d="M0 59L9 75L18 61L27 47L36 77L45 75L53 59L62 49L71 68L80 67L89 34L98 66L107 46L116 70L125 53L134 67L143 78L152 68L160 54L169 49L178 79L187 49L196 77L205 69L205 53L196 68L187 45L178 75L169 47L160 38L152 55L143 64L134 53L125 50L116 68L107 37L98 51L89 25L80 59L71 56L62 33L53 50L45 60L36 64L27 35L18 46L9 68L0 51Z" fill="#29162d"></path><path d="M0 59L9 76L18 68L27 48L36 85L45 77L53 60L62 55L71 69L80 75L89 38L98 72L107 54L116 71L125 55L134 73L143 80L152 68L160 62L169 57L178 87L187 57L196 79L205 71L205 67L196 75L187 47L178 77L169 47L160 52L152 66L143 76L134 65L125 51L116 68L107 44L98 64L89 32L80 65L71 66L62 47L53 57L45 73L36 75L27 45L18 59L9 73L0 57Z" fill="#23162d"></path><path d="M0 85L9 86L18 87L27 93L36 89L45 78L53 86L62 81L71 89L80 93L89 81L98 97L107 89L116 86L125 75L134 88L143 82L152 82L160 80L169 74L178 92L187 77L196 82L205 80L205 69L196 77L187 55L178 85L169 55L160 60L152 66L143 78L134 71L125 53L116 69L107 52L98 70L89 36L80 73L71 67L62 53L53 58L45 75L36 83L27 46L18 66L9 74L0 57Z" fill="#1d162d"></path><path d="M0 96L9 94L18 88L27 98L36 91L45 84L53 86L62 88L71 90L80 97L89 86L98 98L107 95L116 87L125 76L134 92L143 88L152 89L160 88L169 78L178 99L187 85L196 87L205 91L205 78L196 80L187 75L178 90L169 72L160 78L152 80L143 80L134 86L125 73L116 84L107 87L98 95L89 79L80 91L71 87L62 79L53 84L45 76L36 87L27 91L18 85L9 84L0 83Z" fill="#17162c"></path><path d="M0 101L9 101L18 101L27 101L36 101L45 101L53 101L62 101L71 101L80 101L89 101L98 101L107 101L116 101L125 101L134 101L143 101L152 101L160 101L169 101L178 101L187 101L196 101L205 101L205 89L196 85L187 83L178 97L169 76L160 86L152 87L143 86L134 90L125 74L116 85L107 93L98 96L89 84L80 95L71 88L62 86L53 84L45 82L36 89L27 96L18 86L9 92L0 94Z" fill="#11162a"></path></svg>